<?xml version="1.0" encoding="UTF-8"?>
<svg xmlns="http://www.w3.org/2000/svg" xmlns:xlink="http://www.w3.org/1999/xlink" viewBox="0 0 50 50" width="50px" height="50px">
<g id="surface38710606">
<path style=" stroke:none;fill-rule:nonzero;fill:rgb(100%,100%,100%);fill-opacity:1;" d="M 25 2 C 12.316406 2 2 12.316406 2 25 C 2 37.683594 12.316406 48 25 48 C 37.683594 48 48 37.683594 48 25 C 48 12.316406 37.683594 2 25 2 Z M 19 15 C 23 20 20 25 20 25 L 13 25 Z M 41 29 L 38.105469 30.445312 C 37.398438 30.800781 36.859375 31.421875 36.609375 32.171875 C 35.648438 35.054688 32.949219 38 29.910156 38 L 20.789062 38 C 16.238281 38 12.296875 33.839844 11.308594 29.398438 L 11 28 L 19 28 C 19 29.65625 20.34375 31 22 31 L 25 31 L 25 27 L 22 27 C 27 20 21 13 21 13 C 21 13 22.796875 13.558594 25 14.242188 L 25 12 C 25 11.445312 25.445312 11 26 11 C 26.554688 11 27 11.445312 27 12 L 27 14.867188 C 38 21.398438 30 27 30 27 L 27 27 L 27 31 L 30.242188 31 C 30.734375 31 31.21875 30.855469 31.628906 30.578125 L 34 29 L 41 27 Z M 41 29 "/>
</g>
</svg>
